<svg width="92" height="76" viewBox="0 0 92 76" fill="none" xmlns="http://www.w3.org/2000/svg">
<path d="M8.49996 38C3.91663 38 0.166626 34.25 0.166626 29.6667V8.83333C0.166626 4.25 3.91663 0.5 8.49996 0.5H41.8333C46.4166 0.5 50.1666 4.25 50.1666 8.83333V29.6667C50.1666 34.25 46.4166 38 41.8333 38H33.5V50.5L21 38H8.49996ZM83.5 63C88.0833 63 91.8333 59.25 91.8333 54.6667V33.8333C91.8333 29.25 88.0833 25.5 83.5 25.5H58.5V29.6667C58.5 38.8333 51 46.3333 41.8333 46.3333V54.6667C41.8333 59.25 45.5833 63 50.1666 63H58.5V75.5L71 63H83.5Z" fill="#0066F5"/>
</svg>
